<svg width="24" height="24" viewBox="0 0 24 24" fill="none" xmlns="http://www.w3.org/2000/svg">
<path d="M11.25 2L11.25 14.3987L6.48015 10.4238C6.16194 10.1587 5.68902 10.2017 5.42385 10.5199C5.15867 10.8381 5.20167 11.311 5.51987 11.5762L11.5199 16.5762C11.798 16.8079 12.202 16.8079 12.4802 16.5762L18.4802 11.5762C18.7984 11.311 18.8414 10.8381 18.5762 10.5199C18.311 10.2017 17.8381 10.1587 17.5199 10.4238L12.75 14.3987L12.75 2C12.75 1.58579 12.4142 1.25 12 1.25C11.5858 1.25 11.25 1.58579 11.25 2Z" fill="#1199FA"/>
<path d="M2.75 17C2.75 16.5858 2.41421 16.25 2 16.25C1.58579 16.25 1.25 16.5858 1.25 17V21C1.25 21.4142 1.58579 21.75 2 21.75H22C22.4142 21.75 22.75 21.4142 22.75 21V17C22.75 16.5858 22.4142 16.25 22 16.25C21.5858 16.25 21.25 16.5858 21.25 17V20.25H2.75V17Z" fill="#1199FA"/>
</svg>
