<svg width="24" height="24" viewBox="0 0 24 24" fill="none" xmlns="http://www.w3.org/2000/svg">
<path fill-rule="evenodd" clip-rule="evenodd" d="M5.77778 10.0227C5.23001 10.0227 4.75 10.4891 4.75 11.0909V20.1818C4.75 20.7836 5.23001 21.25 5.77778 21.25H18.2222C18.77 21.25 19.25 20.7836 19.25 20.1818V11.0909C19.25 10.4891 18.77 10.0227 18.2222 10.0227H5.77778ZM3.25 11.0909C3.25 9.69265 4.36999 8.52271 5.77778 8.52271H18.2222C19.63 8.52271 20.75 9.69265 20.75 11.0909V20.1818C20.75 21.58 19.63 22.75 18.2222 22.75H5.77778C4.36999 22.75 3.25 21.58 3.25 20.1818V11.0909Z" fill="#1199FA"/>
<path fill-rule="evenodd" clip-rule="evenodd" d="M12 2.75C9.94111 2.75 8.30554 4.39824 8.30554 6.54545C8.30554 6.95967 7.96976 7.29545 7.55554 7.29545C7.14133 7.29545 6.80554 6.95967 6.80554 6.54545C6.80554 3.60176 9.08108 1.25 12 1.25C14.9189 1.25 17.1944 3.60176 17.1944 6.54545C17.1944 6.95967 16.8586 7.29545 16.4444 7.29545C16.0302 7.29545 15.6944 6.95967 15.6944 6.54545C15.6944 4.39824 14.0589 2.75 12 2.75Z" fill="#1199FA"/>
<path fill-rule="evenodd" clip-rule="evenodd" d="M16.4445 5.79541C16.8587 5.79541 17.1945 6.1312 17.1945 6.54541V8.90905C17.1945 9.32326 16.8587 9.65905 16.4445 9.65905C16.0302 9.65905 15.6945 9.32326 15.6945 8.90905V6.54541C15.6945 6.1312 16.0302 5.79541 16.4445 5.79541Z" fill="#1199FA"/>
<path fill-rule="evenodd" clip-rule="evenodd" d="M7.55554 5.79541C7.96976 5.79541 8.30554 6.1312 8.30554 6.54541V9.18177C8.30554 9.59599 7.96976 9.93177 7.55554 9.93177C7.14133 9.93177 6.80554 9.59599 6.80554 9.18177V6.54541C6.80554 6.1312 7.14133 5.79541 7.55554 5.79541Z" fill="#1199FA"/>
</svg>
