<svg width="24" height="24" viewBox="0 0 24 24" fill="none" xmlns="http://www.w3.org/2000/svg">
<path fill-rule="evenodd" clip-rule="evenodd" d="M12 1.75C6.33908 1.75 1.75 6.33908 1.75 12C1.75 17.6609 6.33908 22.25 12 22.25C17.6609 22.25 22.25 17.6609 22.25 12C22.25 6.33908 17.6609 1.75 12 1.75ZM0.25 12C0.25 5.51065 5.51065 0.25 12 0.25C18.4893 0.25 23.75 5.51065 23.75 12C23.75 18.4893 18.4893 23.75 12 23.75C5.51065 23.75 0.25 18.4893 0.25 12Z" fill="#1199FA"/>
<path fill-rule="evenodd" clip-rule="evenodd" d="M12.4344 0.607401C12.7065 0.29505 13.1802 0.262378 13.4926 0.534425C16.7485 3.37021 18.75 7.47319 18.75 12C18.75 16.6215 16.752 20.732 13.4819 23.4746C13.1646 23.7408 12.6915 23.6993 12.4253 23.3819C12.1592 23.0646 12.2007 22.5915 12.518 22.3253C15.448 19.868 17.25 16.1784 17.25 12C17.25 7.92679 15.4515 4.22977 12.5074 1.66555C12.1951 1.3935 12.1624 0.919752 12.4344 0.607401Z" fill="#1199FA"/>
<path fill-rule="evenodd" clip-rule="evenodd" d="M11.5746 0.618034C11.8408 0.935401 11.7993 1.40846 11.482 1.67464C8.55203 4.132 6.75 7.82154 6.75 12C6.75 16.0732 8.54848 19.7702 11.4926 22.3344C11.8049 22.6065 11.8376 23.0802 11.5656 23.3926C11.2935 23.7049 10.8198 23.7376 10.5074 23.4656C7.25152 20.6298 5.25 16.5268 5.25 12C5.25 7.37845 7.24797 3.26799 10.518 0.525349C10.8354 0.259171 11.3085 0.300667 11.5746 0.618034Z" fill="#1199FA"/>
<path fill-rule="evenodd" clip-rule="evenodd" d="M12 0.25C12.4142 0.25 12.75 0.585786 12.75 1V23C12.75 23.4142 12.4142 23.75 12 23.75C11.5858 23.75 11.25 23.4142 11.25 23V1C11.25 0.585786 11.5858 0.25 12 0.25Z" fill="#1199FA"/>
<path fill-rule="evenodd" clip-rule="evenodd" d="M1.25 8C1.25 7.58579 1.58579 7.25 2 7.25H22C22.4142 7.25 22.75 7.58579 22.75 8C22.75 8.41421 22.4142 8.75 22 8.75H2C1.58579 8.75 1.25 8.41421 1.25 8Z" fill="#1199FA"/>
<path fill-rule="evenodd" clip-rule="evenodd" d="M1.25 16C1.25 15.5858 1.58579 15.25 2 15.25H22C22.4142 15.25 22.75 15.5858 22.75 16C22.75 16.4142 22.4142 16.75 22 16.75H2C1.58579 16.75 1.25 16.4142 1.25 16Z" fill="#1199FA"/>
</svg>
