<svg width="24" height="24" viewBox="0 0 24 24" fill="none" xmlns="http://www.w3.org/2000/svg">
<path d="M11.6762 5.65138L13.867 3.36927C15.6927 1.54358 18.7051 1.54358 20.5308 3.36927C22.3565 5.19496 22.3565 8.20735 20.5308 10.1243L16.3317 14.3234C14.506 16.1491 11.4936 16.1491 9.66792 14.3234C9.39407 14.0496 8.84636 13.3193 8.57251 12.9541" stroke="#1199FA" stroke-width="1.5" stroke-linecap="round" stroke-linejoin="round"/>
<path d="M11.6762 5.65138L13.867 3.36927C15.6927 1.54358 18.7051 1.54358 20.5308 3.36927C22.3565 5.19496 22.3565 8.20735 20.5308 10.1243L16.3317 14.3234C14.506 16.1491 11.4936 16.1491 9.66792 14.3234C9.39407 14.0496 8.84636 13.3193 8.57251 12.9541" stroke="#1199FA" stroke-width="1.5" stroke-linecap="round" stroke-linejoin="round"/>
<path d="M12.2239 18.4312L10.033 20.7133C8.20735 22.539 5.19496 22.539 3.36927 20.7133C1.54358 18.8876 1.54358 15.8752 3.36927 13.9582L7.56836 9.75916C9.39405 7.93347 12.4064 7.93347 14.2321 9.75916C14.506 10.033 15.0537 10.7633 15.3275 11.1284" stroke="#1199FA" stroke-width="1.5" stroke-linecap="round" stroke-linejoin="round"/>
</svg>
